<?xml version="1.0" standalone="no"?>
<!DOCTYPE svg PUBLIC "-//W3C//DTD SVG 20010904//EN"
 "http://www.w3.org/TR/2001/REC-SVG-20010904/DTD/svg10.dtd">
<svg version="1.0" xmlns="http://www.w3.org/2000/svg"
 width="16.000000pt" height="16.000000pt" viewBox="0 0 16.000000 16.000000"
 preserveAspectRatio="xMidYMid meet">
<metadata>
Created by potrace 1.11, written by Peter Selinger 2001-2013
</metadata>
<g transform="translate(0.000000,16.000000) scale(0.002133,-0.002133)"
fill="#000000" stroke="none">
<path d="M844 6479 c-42 -12 -92 -65 -99 -103 -3 -17 -4 -964 -3 -2103 l3
-2073 36 -36 c21 -21 52 -39 75 -44 21 -5 200 -10 396 -10 l357 0 3 -195 3
-195 36 -36 c21 -21 52 -39 75 -44 21 -5 200 -10 396 -10 l357 0 3 -190 3
-190 36 -36 c21 -21 52 -39 75 -44 23 -6 818 -10 1892 -10 l1852 0 0 155 0
155 -1775 0 -1775 0 0 80 0 80 1340 0 1340 0 0 155 0 155 -1340 0 -1340 0 0
85 0 85 905 0 905 0 0 155 0 155 -905 0 -905 0 0 1405 0 1405 548 -2 547 -3 3
-1097 2 -1098 155 0 155 0 0 1100 0 1100 278 -2 277 -3 3 -1337 2 -1338 155 0
155 0 0 1340 0 1340 278 -2 277 -3 3 -1572 2 -1573 155 0 155 0 0 1663 0 1663
-22 44 c-17 33 -35 51 -68 68 -43 22 -50 22 -412 22 l-368 0 0 168 c0 154 -2
171 -22 212 -17 33 -35 51 -68 68 -43 22 -50 22 -412 22 l-368 0 0 173 c0 159
-2 176 -22 217 -17 33 -35 51 -68 68 l-44 22 -1596 -1 c-921 0 -1608 -5 -1626
-10z m3044 -386 l3 -83 -1088 -2 c-1035 -3 -1089 -4 -1118 -21 -16 -10 -39
-31 -50 -45 -20 -27 -20 -47 -25 -1772 l-5 -1745 -277 -3 -278 -2 0 1880 0
1880 1418 -2 1417 -3 3 -82z m0 -475 l3 -77 -653 -3 c-613 -3 -655 -4 -683
-21 -16 -10 -39 -31 -50 -45 -20 -27 -20 -47 -25 -1537 l-5 -1510 -277 -3
-278 -2 0 1640 0 1640 983 -2 982 -3 3 -77z m870 0 l3 -78 -281 0 -280 0 0 80
0 80 278 -2 277 -3 3 -77z m-2280 -3590 l-3 -83 -277 -3 -278 -2 0 85 0 85
280 0 281 0 -3 -82z"/>
<path d="M4005 2920 c-79 -18 -125 -63 -146 -141 -41 -157 148 -287 282 -196
90 62 111 180 47 270 -35 49 -122 81 -183 67z"/>
<path d="M4875 2440 c-79 -18 -125 -63 -146 -141 -41 -157 148 -287 282 -196
90 62 111 180 47 270 -35 49 -122 81 -183 67z"/>
<path d="M5745 1970 c-79 -18 -125 -63 -146 -141 -41 -157 148 -287 282 -196
90 62 111 180 47 270 -35 49 -122 81 -183 67z"/>
<path d="M6615 1500 c-79 -18 -125 -63 -146 -141 -41 -157 148 -287 282 -196
90 62 111 180 47 270 -35 49 -122 81 -183 67z"/>
</g>
</svg>
